<mxfile host="app.diagrams.net" agent="Mozilla/5.0 (Windows NT 10.0; Win64; x64) AppleWebKit/537.36 (KHTML, like Gecko) Chrome/128.0.0.0 YaBrowser/24.10.0.0 Safari/537.36" version="24.8.4">
  <diagram id="prtHgNgQTEPvFCAcTncT" name="Page-1">
    <mxGraphModel dx="1848" dy="1055" grid="1" gridSize="10" guides="1" tooltips="1" connect="1" arrows="1" fold="1" page="1" pageScale="1" pageWidth="827" pageHeight="1169" math="0" shadow="0">
      <root>
        <mxCell id="0" />
        <mxCell id="1" parent="0" />
        <mxCell id="dNxyNK7c78bLwvsdeMH5-11" value="2mootova" style="swimlane;html=1;startSize=20;horizontal=1;containerType=tree;glass=0;" parent="1" vertex="1">
          <mxGeometry y="130" width="1240" height="1020" as="geometry" />
        </mxCell>
        <mxCell id="g59UjJaVbPOGUFSYGAVY-9" style="edgeStyle=orthogonalEdgeStyle;rounded=0;orthogonalLoop=1;jettySize=auto;html=1;exitX=0.5;exitY=1;exitDx=0;exitDy=0;entryX=0.5;entryY=0;entryDx=0;entryDy=0;" edge="1" parent="dNxyNK7c78bLwvsdeMH5-11" source="dNxyNK7c78bLwvsdeMH5-12" target="g59UjJaVbPOGUFSYGAVY-8">
          <mxGeometry relative="1" as="geometry" />
        </mxCell>
        <mxCell id="g59UjJaVbPOGUFSYGAVY-13" style="edgeStyle=orthogonalEdgeStyle;rounded=0;orthogonalLoop=1;jettySize=auto;html=1;exitX=0.5;exitY=1;exitDx=0;exitDy=0;entryX=0.5;entryY=0;entryDx=0;entryDy=0;" edge="1" parent="dNxyNK7c78bLwvsdeMH5-11" source="dNxyNK7c78bLwvsdeMH5-12" target="g59UjJaVbPOGUFSYGAVY-12">
          <mxGeometry relative="1" as="geometry" />
        </mxCell>
        <mxCell id="g59UjJaVbPOGUFSYGAVY-22" style="edgeStyle=orthogonalEdgeStyle;rounded=0;orthogonalLoop=1;jettySize=auto;html=1;exitX=0.5;exitY=1;exitDx=0;exitDy=0;entryX=0.5;entryY=0;entryDx=0;entryDy=0;" edge="1" parent="dNxyNK7c78bLwvsdeMH5-11" source="dNxyNK7c78bLwvsdeMH5-12" target="g59UjJaVbPOGUFSYGAVY-21">
          <mxGeometry relative="1" as="geometry" />
        </mxCell>
        <mxCell id="g59UjJaVbPOGUFSYGAVY-35" style="edgeStyle=orthogonalEdgeStyle;rounded=0;orthogonalLoop=1;jettySize=auto;html=1;exitX=0.5;exitY=1;exitDx=0;exitDy=0;" edge="1" parent="dNxyNK7c78bLwvsdeMH5-11" source="dNxyNK7c78bLwvsdeMH5-12" target="g59UjJaVbPOGUFSYGAVY-34">
          <mxGeometry relative="1" as="geometry" />
        </mxCell>
        <UserObject label="Директор&lt;div&gt;Пешкова Инга&lt;/div&gt;" name="Tessa Miller" position="CFO" location="Office 1" email="me@example.com" placeholders="1" link="https://www.draw.io" id="dNxyNK7c78bLwvsdeMH5-12">
          <mxCell style="label;image=https://cdn3.iconfinder.com/data/icons/user-avatars-1/512/users-3-128.png;whiteSpace=wrap;html=1;rounded=0;glass=0;treeMoving=1;treeFolding=1;" parent="dNxyNK7c78bLwvsdeMH5-11" vertex="1">
            <mxGeometry x="530" y="40" width="180" height="70" as="geometry" />
          </mxCell>
        </UserObject>
        <mxCell id="dNxyNK7c78bLwvsdeMH5-15" value="" style="endArrow=blockThin;endFill=1;fontSize=11;edgeStyle=elbowEdgeStyle;elbow=vertical;rounded=0;" parent="dNxyNK7c78bLwvsdeMH5-11" source="dNxyNK7c78bLwvsdeMH5-12" target="dNxyNK7c78bLwvsdeMH5-16" edge="1">
          <mxGeometry relative="1" as="geometry" />
        </mxCell>
        <UserObject label="Управляющий магазина (3 человека)" name="Evan Valet" position="HR Director" location="Office 4" email="me@example.com" placeholders="1" link="https://www.draw.io" id="dNxyNK7c78bLwvsdeMH5-16">
          <mxCell style="label;image=https://cdn3.iconfinder.com/data/icons/user-avatars-1/512/users-9-2-128.png;whiteSpace=wrap;html=1;rounded=0;glass=0;treeFolding=1;treeMoving=1;" parent="dNxyNK7c78bLwvsdeMH5-11" vertex="1">
            <mxGeometry x="1030" y="200" width="180" height="80" as="geometry" />
          </mxCell>
        </UserObject>
        <UserObject label="Системный администратор" name="Evan Valet" position="HR Director" location="Office 4" email="me@example.com" placeholders="1" link="https://www.draw.io" id="g59UjJaVbPOGUFSYGAVY-5">
          <mxCell style="label;image=https://cdn3.iconfinder.com/data/icons/user-avatars-1/512/users-9-2-128.png;whiteSpace=wrap;html=1;rounded=0;glass=0;treeFolding=1;treeMoving=1;" vertex="1" parent="dNxyNK7c78bLwvsdeMH5-11">
            <mxGeometry x="280" y="440" width="180" height="80" as="geometry" />
          </mxCell>
        </UserObject>
        <UserObject label="SMM-менеджер" name="Evan Valet" position="HR Director" location="Office 4" email="me@example.com" placeholders="1" link="https://www.draw.io" id="g59UjJaVbPOGUFSYGAVY-4">
          <mxCell style="label;image=https://cdn3.iconfinder.com/data/icons/user-avatars-1/512/users-9-2-128.png;whiteSpace=wrap;html=1;rounded=0;glass=0;treeFolding=1;treeMoving=1;" vertex="1" parent="dNxyNK7c78bLwvsdeMH5-11">
            <mxGeometry x="30" y="320" width="180" height="80" as="geometry" />
          </mxCell>
        </UserObject>
        <UserObject label="Маркетолог" name="Edward Morrison" position="Brand Manager" location="Office 2" email="me@example.com" placeholders="1" link="https://www.draw.io" id="g59UjJaVbPOGUFSYGAVY-7">
          <mxCell style="label;image=https://cdn3.iconfinder.com/data/icons/user-avatars-1/512/users-10-3-128.png;whiteSpace=wrap;html=1;rounded=0;glass=0;treeFolding=1;treeMoving=1;" vertex="1" parent="dNxyNK7c78bLwvsdeMH5-11">
            <mxGeometry x="30" y="445" width="180" height="80" as="geometry" />
          </mxCell>
        </UserObject>
        <mxCell id="g59UjJaVbPOGUFSYGAVY-10" style="edgeStyle=orthogonalEdgeStyle;rounded=0;orthogonalLoop=1;jettySize=auto;html=1;exitX=0.5;exitY=1;exitDx=0;exitDy=0;entryX=0.5;entryY=0;entryDx=0;entryDy=0;" edge="1" parent="dNxyNK7c78bLwvsdeMH5-11" source="g59UjJaVbPOGUFSYGAVY-8" target="g59UjJaVbPOGUFSYGAVY-4">
          <mxGeometry relative="1" as="geometry" />
        </mxCell>
        <mxCell id="g59UjJaVbPOGUFSYGAVY-11" style="edgeStyle=orthogonalEdgeStyle;rounded=0;orthogonalLoop=1;jettySize=auto;html=1;exitX=0.5;exitY=1;exitDx=0;exitDy=0;entryX=0.5;entryY=0;entryDx=0;entryDy=0;" edge="1" parent="dNxyNK7c78bLwvsdeMH5-11" source="g59UjJaVbPOGUFSYGAVY-8" target="g59UjJaVbPOGUFSYGAVY-7">
          <mxGeometry relative="1" as="geometry">
            <Array as="points">
              <mxPoint x="120" y="300" />
              <mxPoint x="230" y="300" />
              <mxPoint x="230" y="420" />
              <mxPoint x="120" y="420" />
            </Array>
          </mxGeometry>
        </mxCell>
        <mxCell id="g59UjJaVbPOGUFSYGAVY-8" value="Отдел маркетинга" style="rounded=0;whiteSpace=wrap;html=1;" vertex="1" parent="dNxyNK7c78bLwvsdeMH5-11">
          <mxGeometry x="30" y="200" width="180" height="80" as="geometry" />
        </mxCell>
        <mxCell id="g59UjJaVbPOGUFSYGAVY-15" style="edgeStyle=orthogonalEdgeStyle;rounded=0;orthogonalLoop=1;jettySize=auto;html=1;exitX=0.5;exitY=1;exitDx=0;exitDy=0;entryX=0.5;entryY=0;entryDx=0;entryDy=0;" edge="1" parent="dNxyNK7c78bLwvsdeMH5-11" source="g59UjJaVbPOGUFSYGAVY-12" target="g59UjJaVbPOGUFSYGAVY-14">
          <mxGeometry relative="1" as="geometry" />
        </mxCell>
        <mxCell id="g59UjJaVbPOGUFSYGAVY-16" style="edgeStyle=orthogonalEdgeStyle;rounded=0;orthogonalLoop=1;jettySize=auto;html=1;exitX=0.5;exitY=1;exitDx=0;exitDy=0;entryX=0.5;entryY=0;entryDx=0;entryDy=0;" edge="1" parent="dNxyNK7c78bLwvsdeMH5-11" source="g59UjJaVbPOGUFSYGAVY-12" target="g59UjJaVbPOGUFSYGAVY-5">
          <mxGeometry relative="1" as="geometry">
            <Array as="points">
              <mxPoint x="370" y="300" />
              <mxPoint x="480" y="300" />
              <mxPoint x="480" y="420" />
              <mxPoint x="370" y="420" />
            </Array>
          </mxGeometry>
        </mxCell>
        <mxCell id="g59UjJaVbPOGUFSYGAVY-18" style="edgeStyle=orthogonalEdgeStyle;rounded=0;orthogonalLoop=1;jettySize=auto;html=1;exitX=0.5;exitY=1;exitDx=0;exitDy=0;entryX=0.5;entryY=0;entryDx=0;entryDy=0;" edge="1" parent="dNxyNK7c78bLwvsdeMH5-11" source="g59UjJaVbPOGUFSYGAVY-12" target="g59UjJaVbPOGUFSYGAVY-17">
          <mxGeometry relative="1" as="geometry">
            <Array as="points">
              <mxPoint x="370" y="300" />
              <mxPoint x="480" y="300" />
              <mxPoint x="480" y="540" />
              <mxPoint x="370" y="540" />
            </Array>
          </mxGeometry>
        </mxCell>
        <mxCell id="g59UjJaVbPOGUFSYGAVY-20" style="edgeStyle=orthogonalEdgeStyle;rounded=0;orthogonalLoop=1;jettySize=auto;html=1;exitX=0.5;exitY=1;exitDx=0;exitDy=0;" edge="1" parent="dNxyNK7c78bLwvsdeMH5-11" source="g59UjJaVbPOGUFSYGAVY-12" target="g59UjJaVbPOGUFSYGAVY-19">
          <mxGeometry relative="1" as="geometry">
            <Array as="points">
              <mxPoint x="370" y="300" />
              <mxPoint x="480" y="300" />
              <mxPoint x="480" y="660" />
              <mxPoint x="370" y="660" />
            </Array>
          </mxGeometry>
        </mxCell>
        <mxCell id="g59UjJaVbPOGUFSYGAVY-12" value="Отдел обслуживания" style="rounded=0;whiteSpace=wrap;html=1;" vertex="1" parent="dNxyNK7c78bLwvsdeMH5-11">
          <mxGeometry x="280" y="200" width="180" height="80" as="geometry" />
        </mxCell>
        <UserObject label="Администратор технической поддержки" name="Alison Donovan" position="System Admin" location="Office 3" email="me@example.com" placeholders="1" link="https://www.draw.io" id="g59UjJaVbPOGUFSYGAVY-14">
          <mxCell style="label;image=https://cdn3.iconfinder.com/data/icons/user-avatars-1/512/users-2-128.png;whiteSpace=wrap;html=1;rounded=0;glass=0;" vertex="1" parent="dNxyNK7c78bLwvsdeMH5-11">
            <mxGeometry x="280" y="320" width="180" height="80" as="geometry" />
          </mxCell>
        </UserObject>
        <UserObject label="Специалист по техническому обслуживанию" name="Alison Donovan" position="System Admin" location="Office 3" email="me@example.com" placeholders="1" link="https://www.draw.io" id="g59UjJaVbPOGUFSYGAVY-17">
          <mxCell style="label;image=https://cdn3.iconfinder.com/data/icons/user-avatars-1/512/users-2-128.png;whiteSpace=wrap;html=1;rounded=0;glass=0;" vertex="1" parent="dNxyNK7c78bLwvsdeMH5-11">
            <mxGeometry x="280" y="560" width="180" height="80" as="geometry" />
          </mxCell>
        </UserObject>
        <UserObject label="Специалист по информационной безопасности" name="Alison Donovan" position="System Admin" location="Office 3" email="me@example.com" placeholders="1" link="https://www.draw.io" id="g59UjJaVbPOGUFSYGAVY-19">
          <mxCell style="label;image=https://cdn3.iconfinder.com/data/icons/user-avatars-1/512/users-2-128.png;whiteSpace=wrap;html=1;rounded=0;glass=0;" vertex="1" parent="dNxyNK7c78bLwvsdeMH5-11">
            <mxGeometry x="280" y="680" width="180" height="80" as="geometry" />
          </mxCell>
        </UserObject>
        <mxCell id="g59UjJaVbPOGUFSYGAVY-25" style="edgeStyle=orthogonalEdgeStyle;rounded=0;orthogonalLoop=1;jettySize=auto;html=1;exitX=0.5;exitY=1;exitDx=0;exitDy=0;" edge="1" parent="dNxyNK7c78bLwvsdeMH5-11" source="g59UjJaVbPOGUFSYGAVY-21" target="g59UjJaVbPOGUFSYGAVY-23">
          <mxGeometry relative="1" as="geometry" />
        </mxCell>
        <mxCell id="g59UjJaVbPOGUFSYGAVY-26" style="edgeStyle=orthogonalEdgeStyle;rounded=0;orthogonalLoop=1;jettySize=auto;html=1;exitX=0.5;exitY=1;exitDx=0;exitDy=0;" edge="1" parent="dNxyNK7c78bLwvsdeMH5-11" source="g59UjJaVbPOGUFSYGAVY-21" target="g59UjJaVbPOGUFSYGAVY-24">
          <mxGeometry relative="1" as="geometry">
            <Array as="points">
              <mxPoint x="620" y="300" />
              <mxPoint x="730" y="300" />
              <mxPoint x="730" y="420" />
              <mxPoint x="620" y="420" />
            </Array>
          </mxGeometry>
        </mxCell>
        <mxCell id="g59UjJaVbPOGUFSYGAVY-21" value="IT-отдел" style="rounded=0;whiteSpace=wrap;html=1;" vertex="1" parent="dNxyNK7c78bLwvsdeMH5-11">
          <mxGeometry x="530" y="200" width="180" height="80" as="geometry" />
        </mxCell>
        <UserObject label="Бизнес-аналитик" name="Alison Donovan" position="System Admin" location="Office 3" email="me@example.com" placeholders="1" link="https://www.draw.io" id="g59UjJaVbPOGUFSYGAVY-23">
          <mxCell style="label;image=https://cdn3.iconfinder.com/data/icons/user-avatars-1/512/users-2-128.png;whiteSpace=wrap;html=1;rounded=0;glass=0;" vertex="1" parent="dNxyNK7c78bLwvsdeMH5-11">
            <mxGeometry x="530" y="320" width="180" height="80" as="geometry" />
          </mxCell>
        </UserObject>
        <mxCell id="g59UjJaVbPOGUFSYGAVY-28" style="edgeStyle=orthogonalEdgeStyle;rounded=0;orthogonalLoop=1;jettySize=auto;html=1;exitX=0.5;exitY=1;exitDx=0;exitDy=0;entryX=0.5;entryY=0;entryDx=0;entryDy=0;" edge="1" parent="dNxyNK7c78bLwvsdeMH5-11" source="g59UjJaVbPOGUFSYGAVY-24" target="g59UjJaVbPOGUFSYGAVY-27">
          <mxGeometry relative="1" as="geometry" />
        </mxCell>
        <UserObject label="Разработчик веб-приложения" name="Evan Valet" position="HR Director" location="Office 4" email="me@example.com" placeholders="1" link="https://www.draw.io" id="g59UjJaVbPOGUFSYGAVY-24">
          <mxCell style="label;image=https://cdn3.iconfinder.com/data/icons/user-avatars-1/512/users-9-2-128.png;whiteSpace=wrap;html=1;rounded=0;glass=0;treeFolding=1;treeMoving=1;" vertex="1" parent="dNxyNK7c78bLwvsdeMH5-11">
            <mxGeometry x="530" y="440" width="180" height="80" as="geometry" />
          </mxCell>
        </UserObject>
        <mxCell id="g59UjJaVbPOGUFSYGAVY-31" style="edgeStyle=orthogonalEdgeStyle;rounded=0;orthogonalLoop=1;jettySize=auto;html=1;exitX=0.5;exitY=1;exitDx=0;exitDy=0;" edge="1" parent="dNxyNK7c78bLwvsdeMH5-11" source="g59UjJaVbPOGUFSYGAVY-27" target="g59UjJaVbPOGUFSYGAVY-30">
          <mxGeometry relative="1" as="geometry" />
        </mxCell>
        <mxCell id="g59UjJaVbPOGUFSYGAVY-27" value="Команда разработчиков" style="rounded=0;whiteSpace=wrap;html=1;" vertex="1" parent="dNxyNK7c78bLwvsdeMH5-11">
          <mxGeometry x="530" y="560" width="180" height="80" as="geometry" />
        </mxCell>
        <UserObject label="Frontend-разработчик" name="Evan Valet" position="HR Director" location="Office 4" email="me@example.com" placeholders="1" link="https://www.draw.io" id="g59UjJaVbPOGUFSYGAVY-30">
          <mxCell style="label;image=https://cdn3.iconfinder.com/data/icons/user-avatars-1/512/users-9-2-128.png;whiteSpace=wrap;html=1;rounded=0;glass=0;treeFolding=1;treeMoving=1;" vertex="1" parent="dNxyNK7c78bLwvsdeMH5-11">
            <mxGeometry x="530" y="680" width="180" height="80" as="geometry" />
          </mxCell>
        </UserObject>
        <mxCell id="g59UjJaVbPOGUFSYGAVY-38" style="edgeStyle=orthogonalEdgeStyle;rounded=0;orthogonalLoop=1;jettySize=auto;html=1;exitX=0.5;exitY=1;exitDx=0;exitDy=0;entryX=0.5;entryY=0;entryDx=0;entryDy=0;" edge="1" parent="dNxyNK7c78bLwvsdeMH5-11" source="g59UjJaVbPOGUFSYGAVY-34" target="g59UjJaVbPOGUFSYGAVY-37">
          <mxGeometry relative="1" as="geometry" />
        </mxCell>
        <mxCell id="g59UjJaVbPOGUFSYGAVY-34" value="Финансовый отдел" style="rounded=0;whiteSpace=wrap;html=1;" vertex="1" parent="dNxyNK7c78bLwvsdeMH5-11">
          <mxGeometry x="780" y="200" width="180" height="80" as="geometry" />
        </mxCell>
        <mxCell id="g59UjJaVbPOGUFSYGAVY-39" style="edgeStyle=orthogonalEdgeStyle;rounded=0;orthogonalLoop=1;jettySize=auto;html=1;exitX=0.5;exitY=1;exitDx=0;exitDy=0;entryX=0.5;entryY=0;entryDx=0;entryDy=0;" edge="1" parent="dNxyNK7c78bLwvsdeMH5-11" source="g59UjJaVbPOGUFSYGAVY-37" target="g59UjJaVbPOGUFSYGAVY-36">
          <mxGeometry relative="1" as="geometry" />
        </mxCell>
        <UserObject label="Бухгалтер" name="Alison Donovan" position="System Admin" location="Office 3" email="me@example.com" placeholders="1" link="https://www.draw.io" id="g59UjJaVbPOGUFSYGAVY-37">
          <mxCell style="label;image=https://cdn3.iconfinder.com/data/icons/user-avatars-1/512/users-2-128.png;whiteSpace=wrap;html=1;rounded=0;glass=0;" vertex="1" parent="dNxyNK7c78bLwvsdeMH5-11">
            <mxGeometry x="780" y="320" width="180" height="80" as="geometry" />
          </mxCell>
        </UserObject>
        <UserObject label="Экономист" name="Alison Donovan" position="System Admin" location="Office 3" email="me@example.com" placeholders="1" link="https://www.draw.io" id="g59UjJaVbPOGUFSYGAVY-36">
          <mxCell style="label;image=https://cdn3.iconfinder.com/data/icons/user-avatars-1/512/users-2-128.png;whiteSpace=wrap;html=1;rounded=0;glass=0;" vertex="1" parent="dNxyNK7c78bLwvsdeMH5-11">
            <mxGeometry x="780" y="445" width="180" height="80" as="geometry" />
          </mxCell>
        </UserObject>
        <UserObject label="Backend-разработчик" name="Evan Valet" position="HR Director" location="Office 4" email="me@example.com" placeholders="1" link="https://www.draw.io" id="g59UjJaVbPOGUFSYGAVY-29">
          <mxCell style="label;image=https://cdn3.iconfinder.com/data/icons/user-avatars-1/512/users-9-2-128.png;whiteSpace=wrap;html=1;rounded=0;glass=0;treeFolding=1;treeMoving=1;" vertex="1" parent="1">
            <mxGeometry x="530" y="930" width="180" height="80" as="geometry" />
          </mxCell>
        </UserObject>
        <UserObject label="UI/UX-дизайнер" name="Evan Valet" position="HR Director" location="Office 4" email="me@example.com" placeholders="1" link="https://www.draw.io" id="g59UjJaVbPOGUFSYGAVY-6">
          <mxCell style="label;image=https://cdn3.iconfinder.com/data/icons/user-avatars-1/512/users-9-2-128.png;whiteSpace=wrap;html=1;rounded=0;glass=0;treeFolding=1;treeMoving=1;" vertex="1" parent="1">
            <mxGeometry x="530" y="1050" width="180" height="80" as="geometry" />
          </mxCell>
        </UserObject>
        <mxCell id="g59UjJaVbPOGUFSYGAVY-32" style="edgeStyle=orthogonalEdgeStyle;rounded=0;orthogonalLoop=1;jettySize=auto;html=1;exitX=0.5;exitY=1;exitDx=0;exitDy=0;entryX=0.5;entryY=0;entryDx=0;entryDy=0;" edge="1" parent="1" source="g59UjJaVbPOGUFSYGAVY-27" target="g59UjJaVbPOGUFSYGAVY-29">
          <mxGeometry relative="1" as="geometry">
            <Array as="points">
              <mxPoint x="620" y="790" />
              <mxPoint x="730" y="790" />
              <mxPoint x="730" y="910" />
              <mxPoint x="620" y="910" />
            </Array>
          </mxGeometry>
        </mxCell>
        <mxCell id="g59UjJaVbPOGUFSYGAVY-33" style="edgeStyle=orthogonalEdgeStyle;rounded=0;orthogonalLoop=1;jettySize=auto;html=1;exitX=0.5;exitY=1;exitDx=0;exitDy=0;entryX=0.5;entryY=0;entryDx=0;entryDy=0;" edge="1" parent="1" source="g59UjJaVbPOGUFSYGAVY-27" target="g59UjJaVbPOGUFSYGAVY-6">
          <mxGeometry relative="1" as="geometry">
            <Array as="points">
              <mxPoint x="620" y="790" />
              <mxPoint x="730" y="790" />
              <mxPoint x="730" y="1030" />
              <mxPoint x="620" y="1030" />
            </Array>
          </mxGeometry>
        </mxCell>
      </root>
    </mxGraphModel>
  </diagram>
</mxfile>
